<svg enable-background="new 0 0 24 24" height="512" viewBox="0 0 24 24" width="512" xmlns="http://www.w3.org/2000/svg"><path d="m12 23.985c-4.101 0-6.323-2.787-8.113-5.799-.033-.06-.474-.874-.663-1.322l-.061-.147h-.044c-1.444 0-2.619-1.432-2.619-3.192 0-1.401.748-2.491 1.86-2.834.002-1.676.021-1.697.201-1.898.143-.158.345-.248.558-.248l17.771.01c.414 0 .75.336.75.75v1.386c1.112.344 1.86 1.434 1.86 2.834 0 1.76-1.175 3.192-2.619 3.192h-.043l-.063.152c-.211.493-.719 1.378-.74 1.416-1.68 2.765-3.814 5.7-8.035 5.7z" fill="#ffcc80"/><path d="m20.88 10.05h-.01c-.149 0-.289-.044-.406-.119l-.024-.015-.055-.038-.123-.066-.119-.07-.143-.082-.2-.117c-1.215-.655-4.397-2.173-7.81-2.173-1.66 0-3.439.351-5.287 1.042-.418.162-.813.316-1.171.48-.97.436-1.662.837-1.923.988l-.122.07c-.301.162-.703.092-.928-.167-.143-.164-.212-.38-.183-.595l.55-3.98c.274-1.874 1.642-3.417 3.406-3.847l5.498-1.359c.117-.029.241-.029.36 0l5.48 1.36c1.79.436 3.127 1.944 3.401 3.841l.551 3.995c.029.215-.035.432-.178.595-.141.163-.347.257-.564.257z" fill="#f44336"/><path d="m5.811 11.982c-.177 0-.354-.02-.534-.065-1.435-.352-2.325-.86-2.717-1.553-.288-.509-.192-.93-.155-1.047.066-.214.223-.381.42-.466.379-.219 1.099-.63 2.088-1.075.377-.173.802-.34 1.258-.516 2.023-.757 3.979-1.14 5.819-1.14 3.754 0 7.206 1.643 8.517 2.35.111.061.214.12.301.176l.049.028.146.084.023.011.227.132.038.025c.179.118.305.309.334.528.032.186.041.522-.178.912-.387.689-1.279 1.197-2.727 1.552-.797.2-1.546-.096-2.414-.439-1.035-.409-2.323-.918-4.315-.918-1.979 0-3.263.508-4.294.917-.675.266-1.278.504-1.886.504zm15.069-2.422h.01z" fill="#c62828"/><path d="m12 20c-1.98 0-2.649-.573-2.808-.748-.277-.308-.252-.782.056-1.059.293-.264.734-.255 1.016.011.056.037.494.296 1.736.296 1.333 0 1.739-.298 1.743-.301.275-.308.725-.309 1.034-.031.308.277.308.776.03 1.084-.158.175-.827.748-2.807.748z" fill="#f44336"/><path d="m2.366 9.777c-.004.232-.005.529-.006.912-1.112.343-1.86 1.434-1.86 2.834 0 1.76 1.175 3.192 2.619 3.192h.043l.061.147c.189.449.63 1.262.663 1.322 1.79 3.012 4.013 5.799 8.113 5.799v-3.983c-1.98 0-2.649-.573-2.808-.748-.277-.308-.252-.782.056-1.059.145-.13.324-.193.503-.193.186 0 .37.069.514.204.056.037.494.296 1.736.296v-7.94c-.003 0-.006 0-.01 0-1.979 0-3.263.508-4.294.917-.674.267-1.277.505-1.886.505-.177 0-.354-.02-.534-.065-1.435-.352-2.325-.86-2.717-1.553-.122-.217-.175-.418-.193-.587zm.012-.387c-.001.016-.002.032-.002.049.002-.01.004-.02.005-.029-.001-.007-.002-.013-.003-.02z" fill="#deb26f"/><path d="m12 0h-.162c-.003.001-.005.001-.008.002l-5.498 1.359c-1.764.43-3.132 1.973-3.405 3.847l-.55 3.98c-.009.068-.009.136.001.202.001.007.002.013.003.02.008-.04.017-.071.023-.092.066-.214.223-.381.42-.466.379-.219 1.099-.63 2.088-1.075.378-.174.803-.341 1.259-.517 2.023-.757 3.979-1.14 5.819-1.14h.01z" fill="#d43a2f"/><path d="m11.99 6.12c-1.841 0-3.796.383-5.819 1.14-.456.176-.881.343-1.259.516-.989.445-1.709.856-2.088 1.075-.197.085-.354.252-.42.466-.006.022-.015.053-.023.093-.002.009-.004.018-.005.029-.014.085-.024.201-.01.339.018.168.071.37.194.587.392.693 1.282 1.201 2.717 1.553.18.045.357.065.534.065.608 0 1.212-.238 1.886-.505 1.031-.409 2.315-.917 4.294-.917h.01v-4.441c-.004 0-.008 0-.011 0z" fill="#ac2323"/><path d="m9.75 18c-.179 0-.358.064-.502.193-.308.277-.333.751-.056 1.059.159.175.829.748 2.808.748v-1.5c-1.242 0-1.68-.259-1.736-.296-.144-.136-.328-.204-.514-.204z" fill="#d43a2f"/><path d="m15.5 15c-.827 0-1.5-.673-1.5-1.5s.673-1.5 1.5-1.5 1.5.673 1.5 1.5-.673 1.5-1.5 1.5z" fill="#795548"/><path d="m8.5 15c-.827 0-1.5-.673-1.5-1.5s.673-1.5 1.5-1.5 1.5.673 1.5 1.5-.673 1.5-1.5 1.5z" fill="#795548"/><g fill="#694a3f"><path d="m8.5 12c-.827 0-1.5.673-1.5 1.5s.673 1.5 1.5 1.5z"/><path d="m15.5 12c-.827 0-1.5.673-1.5 1.5s.673 1.5 1.5 1.5z"/></g></svg>